<?xml version="1.0" standalone="no"?>
<!DOCTYPE svg PUBLIC "-//W3C//DTD SVG 20010904//EN"
 "http://www.w3.org/TR/2001/REC-SVG-20010904/DTD/svg10.dtd">
<svg version="1.0" xmlns="http://www.w3.org/2000/svg"
 width="512.000000pt" height="512.000000pt" viewBox="0 0 512.000000 512.000000"
 preserveAspectRatio="xMidYMid meet">
<metadata>
Created by potrace 1.11, written by Peter Selinger 2001-2013
</metadata>
<g transform="translate(0.000000,512.000000) scale(0.100000,-0.100000)"
fill="#000000" stroke="none">
<path d="M0 2560 l0 -2560 2560 0 2560 0 0 2560 0 2560 -2560 0 -2560 0 0
-2560z m1790 1894 c16 -16 15 -1245 -2 -1256 -17 -10 -1239 -10 -1256 0 -10 7
-12 140 -10 632 l3 624 25 7 c42 12 1227 6 1240 -7z m1320 -4 c15 -24 13
-1233 -2 -1248 -17 -17 -1239 -17 -1256 0 -9 9 -12 162 -12 626 0 574 1 616
18 628 14 11 130 13 630 11 532 -2 614 -4 622 -17z m-1322 -1308 c10 -7 12
-141 10 -638 l-3 -629 -615 -3 c-338 -1 -625 0 -637 3 l-23 5 0 619 c0 550 2
621 16 635 14 14 84 16 627 16 337 0 618 -4 625 -8z m12 -1350 c3 -538 -2
-1228 -8 -1234 -11 -11 -1253 -11 -1264 0 -4 4 -7 289 -6 633 l3 624 620 5
c341 3 628 1 638 -3 9 -4 17 -15 17 -25z"/>
</g>
</svg>
